# xmcd CD database file
# Copyright (C) 1993-1998 Ti Kan
#
# Track frame offsets:
#	150
#	20037
#	38320
#	65550
#	83535
#	100815
#	122130
#	139210
#	149757
#	169420
#	186155
#	211487
#	250987
#	262722
#
# Disc length: 3966 seconds
#
# Revision: 1
# Processed by: cddbd v1.4b41PL1 Copyright (c) Steve Scherf et al.
# Submitted via: CDValet v3.31 - Copyright (c) 1997 Greg Leichner
#
DISCID=c90f7c0e
DTITLE=El Tri - Un Cuarto De Siglo [CD 2)
DYEAR=1900
DGENRE=
TTITLE0=Sara
TTITLE1=Tirando A Matar
TTITLE2=El Niño Sin Amor
TTITLE3=Es Lo Mejor
TTITLE4=Presta
TTITLE5=Indocumentado
TTITLE6=FZ. 10
TTITLE7=Abuso De Autoridad
TTITLE8=Pobre Soñador
TTITLE9=Ya Me Voy
TTITLE10=Triste Canción
TTITLE11=ADO
TTITLE12=No Le Hagas Caso
TTITLE13=Chavo De Onda
EXTD=
EXTT0=
EXTT1=
EXTT2=
EXTT3=
EXTT4=
EXTT5=
EXTT6=
EXTT7=
EXTT8=
EXTT9=
EXTT10=
EXTT11=
EXTT12=
EXTT13=
PLAYORDER=
